<svg width="48" height="48" viewBox="0 0 48 48" fill="none" xmlns="http://www.w3.org/2000/svg">
<path d="M16.864 29C16.7707 29 16.696 28.972 16.64 28.916C16.584 28.8507 16.556 28.7713 16.556 28.678V20.782L14.204 22.588C14.1387 22.644 14.0687 22.672 13.994 22.672C13.91 22.672 13.8307 22.6253 13.756 22.532L13.42 22.098C13.3733 22.0327 13.35 21.9673 13.35 21.902C13.35 21.7993 13.3967 21.7153 13.49 21.65L16.528 19.298C16.6307 19.2327 16.752 19.2 16.892 19.2H17.55C17.6433 19.2 17.718 19.2327 17.774 19.298C17.8393 19.354 17.872 19.4287 17.872 19.522V28.678C17.872 28.7713 17.8393 28.8507 17.774 28.916C17.718 28.972 17.6433 29 17.55 29H16.864ZM23.2453 29.14C22.4986 29.14 21.8499 28.9907 21.2993 28.692C20.7579 28.384 20.3426 27.9733 20.0533 27.46C19.7733 26.9467 19.6333 26.3867 19.6333 25.78C19.6333 24.9773 19.9553 24.1187 20.5993 23.204L23.2733 19.48C23.2826 19.4707 23.3059 19.438 23.3433 19.382C23.3899 19.326 23.4459 19.284 23.5113 19.256C23.5766 19.2187 23.6513 19.2 23.7353 19.2H24.4213C24.5053 19.2 24.5706 19.2327 24.6173 19.298C24.6733 19.354 24.7013 19.424 24.7013 19.508C24.7013 19.5547 24.6779 19.6153 24.6313 19.69L22.5873 22.546C22.8299 22.49 23.1006 22.462 23.3993 22.462C24.0806 22.462 24.6779 22.616 25.1913 22.924C25.7139 23.2227 26.1153 23.624 26.3953 24.128C26.6846 24.6227 26.8293 25.1687 26.8293 25.766C26.8293 26.3633 26.6846 26.9233 26.3953 27.446C26.1153 27.9593 25.7046 28.37 25.1633 28.678C24.6219 28.986 23.9826 29.14 23.2453 29.14ZM23.2313 27.978C23.6419 27.978 24.0199 27.894 24.3653 27.726C24.7106 27.558 24.9859 27.3107 25.1913 26.984C25.3966 26.648 25.4993 26.2467 25.4993 25.78C25.4993 25.3227 25.3919 24.9307 25.1773 24.604C24.9719 24.268 24.6966 24.016 24.3513 23.848C24.0059 23.6707 23.6326 23.582 23.2313 23.582C22.8299 23.582 22.4566 23.6707 22.1113 23.848C21.7659 24.016 21.4906 24.268 21.2853 24.604C21.0799 24.9307 20.9773 25.3227 20.9773 25.78C20.9773 26.2467 21.0799 26.648 21.2853 26.984C21.4906 27.3107 21.7659 27.558 22.1113 27.726C22.4566 27.894 22.8299 27.978 23.2313 27.978ZM31.4718 28.538C31.3785 28.538 31.2991 28.51 31.2338 28.454C31.1778 28.3887 31.1498 28.3093 31.1498 28.216V25.29H28.2518C28.1585 25.29 28.0791 25.262 28.0138 25.206C27.9578 25.1407 27.9298 25.0613 27.9298 24.968V24.548C27.9298 24.4547 27.9578 24.38 28.0138 24.324C28.0791 24.2587 28.1585 24.226 28.2518 24.226H31.1498V21.384C31.1498 21.2813 31.1778 21.202 31.2338 21.146C31.2991 21.09 31.3785 21.062 31.4718 21.062H31.9198C32.0225 21.062 32.1018 21.09 32.1578 21.146C32.2138 21.202 32.2418 21.2813 32.2418 21.384V24.226H35.1398C35.2331 24.226 35.3078 24.2587 35.3638 24.324C35.4291 24.38 35.4618 24.4547 35.4618 24.548V24.968C35.4618 25.0613 35.4291 25.1407 35.3638 25.206C35.3078 25.262 35.2331 25.29 35.1398 25.29H32.2418V28.216C32.2418 28.3093 32.2091 28.3887 32.1438 28.454C32.0878 28.51 32.0131 28.538 31.9198 28.538H31.4718Z" fill="#575966"/>
<circle cx="24" cy="24" r="23.5" stroke="#575966"/>
</svg>
