<svg width="166" height="48" viewBox="0 0 166 48" fill="none" xmlns="http://www.w3.org/2000/svg">
<path d="M159.852 0.961503C162.698 0.961503 165.015 3.222 165.015 6V42C165.015 44.778 162.698 47.0385 159.852 47.0385H6.14815C3.30156 47.0385 0.98524 44.778 0.98524 42V6C0.98524 3.222 3.30156 0.961503 6.14815 0.961503H159.852ZM159.852 2.53677e-06H6.14815C2.7682 2.53677e-06 0 2.7015 0 6V42C0 45.2985 2.7682 48 6.14815 48H159.852C163.232 48 166 45.2985 166 42V6C166 2.7015 163.232 2.53677e-06 159.852 2.53677e-06Z" fill="#A1A3B3"/>
<path d="M37.0465 23.7408C37.0108 19.8732 40.2915 17.9916 40.4415 17.904C38.5835 15.2604 35.7037 14.8992 34.6917 14.8704C32.273 14.622 29.9269 16.2828 28.6948 16.2828C27.4381 16.2828 25.5408 14.8944 23.496 14.9352C20.8645 14.9748 18.4028 16.4616 17.0527 18.7704C14.2664 23.478 16.3444 30.396 19.014 34.2012C20.3493 36.0648 21.9097 38.1456 23.9521 38.0724C25.9503 37.992 26.6967 36.8292 29.108 36.8292C31.4972 36.8292 32.198 38.0724 34.281 38.0256C36.4255 37.992 37.7756 36.1536 39.0643 34.2732C40.6075 32.1372 41.2272 30.0336 41.2518 29.9256C41.2014 29.9088 37.087 28.3764 37.0465 23.7408Z" fill="#A1A3B3"/>
<path d="M33.1117 12.3672C34.1864 11.0556 34.9217 9.27119 34.7176 7.46039C33.1621 7.52759 31.2168 8.51039 30.0966 9.79319C29.1055 10.9236 28.2202 12.7764 28.4489 14.5188C30.1962 14.646 31.9902 13.6584 33.1117 12.3672Z" fill="#A1A3B3"/>
<path d="M65.9643 37.8048H63.1718L61.6422 33.114H56.3252L54.8681 37.8048H52.1494L57.4171 21.8352H60.6707L65.9643 37.8048ZM61.181 31.146L59.7977 26.976C59.6514 26.55 59.3772 25.5468 58.9726 23.9676H58.9234C58.7624 24.6468 58.5029 25.65 58.1463 26.976L56.7876 31.146H61.181Z" fill="#181920"/>
<path d="M79.5095 31.9056C79.5095 33.864 78.9672 35.412 77.8827 36.5484C76.9113 37.56 75.705 38.0652 74.2651 38.0652C72.7109 38.0652 71.5944 37.5204 70.9144 36.4308H70.8652V42.4968H68.2436V30.0804C68.2436 28.8492 68.2104 27.5856 68.1465 26.2896H70.452L70.5984 28.1148H70.6476C71.5218 26.7396 72.8486 26.0532 74.6291 26.0532C76.021 26.0532 77.183 26.5896 78.1126 27.6636C79.0447 28.7388 79.5095 30.1524 79.5095 31.9056ZM76.8387 31.9992C76.8387 30.8784 76.5805 29.9544 76.0616 29.2272C75.4948 28.4688 74.7336 28.0896 73.7794 28.0896C73.1326 28.0896 72.5449 28.3008 72.0198 28.7172C71.4935 29.1372 71.1492 29.6856 70.9882 30.3648C70.907 30.6816 70.8664 30.9408 70.8664 31.1448V33.0648C70.8664 33.9024 71.1296 34.6092 71.6558 35.1864C72.1821 35.7636 72.8658 36.0516 73.7069 36.0516C74.6943 36.0516 75.4628 35.6796 76.0124 34.938C76.5633 34.1952 76.8387 33.216 76.8387 31.9992Z" fill="#181920"/>
<path d="M93.0815 31.9056C93.0815 33.864 92.5392 35.412 91.4535 36.5484C90.4833 37.56 89.277 38.0652 87.8371 38.0652C86.2829 38.0652 85.1664 37.5204 84.4876 36.4308H84.4384V42.4968H81.8169V30.0804C81.8169 28.8492 81.7837 27.5856 81.7197 26.2896H84.0253L84.1716 28.1148H84.2208C85.0938 26.7396 86.4206 26.0532 88.2023 26.0532C89.5931 26.0532 90.7551 26.5896 91.6871 27.6636C92.6155 28.7388 93.0815 30.1524 93.0815 31.9056ZM90.4108 31.9992C90.4108 30.8784 90.1513 29.9544 89.6324 29.2272C89.0655 28.4688 88.3069 28.0896 87.3514 28.0896C86.7034 28.0896 86.1169 28.3008 85.5906 28.7172C85.0643 29.1372 84.7213 29.6856 84.5602 30.3648C84.4802 30.6816 84.4384 30.9408 84.4384 31.1448V33.0648C84.4384 33.9024 84.7016 34.6092 85.2254 35.1864C85.7517 35.7624 86.4354 36.0516 87.2789 36.0516C88.2663 36.0516 89.0348 35.6796 89.5844 34.938C90.1353 34.1952 90.4108 33.216 90.4108 31.9992Z" fill="#181920"/>
<path d="M108.255 33.3264C108.255 34.6848 107.772 35.79 106.802 36.6432C105.736 37.5756 104.252 38.0412 102.345 38.0412C100.584 38.0412 99.1721 37.71 98.1035 37.0464L98.711 34.914C99.8619 35.5932 101.125 35.934 102.501 35.934C103.488 35.934 104.257 35.7156 104.809 35.2812C105.358 34.8468 105.633 34.2636 105.633 33.5364C105.633 32.8884 105.406 32.3424 104.953 31.8996C104.501 31.4568 103.748 31.0452 102.695 30.6648C99.8299 29.622 98.3986 28.0944 98.3986 26.0856C98.3986 24.7728 98.9003 23.6964 99.9049 22.8588C100.906 22.02 102.241 21.6012 103.911 21.6012C105.4 21.6012 106.637 21.8544 107.625 22.3596L106.969 24.4452C106.047 23.9556 105.004 23.7108 103.837 23.7108C102.915 23.7108 102.194 23.9328 101.678 24.3744C101.242 24.7692 101.023 25.2504 101.023 25.8204C101.023 26.4516 101.272 26.9736 101.774 27.384C102.21 27.7632 103.004 28.1736 104.155 28.6164C105.562 29.1696 106.597 29.8164 107.262 30.558C107.925 31.2972 108.255 32.2224 108.255 33.3264Z" fill="#181920"/>
<path d="M116.923 28.2095H114.034V33.8004C114.034 35.2224 114.543 35.9328 115.563 35.9328C116.032 35.9328 116.42 35.8931 116.728 35.8139L116.8 37.7568C116.284 37.9452 115.604 38.04 114.762 38.04C113.726 38.04 112.917 37.7316 112.333 37.116C111.751 36.4992 111.459 35.4648 111.459 34.0116V28.2071H109.737V26.2871H111.459V24.1787L114.034 23.4203V26.2871H116.923V28.2095Z" fill="#181920"/>
<path d="M129.962 31.9524C129.962 33.7224 129.443 35.1756 128.407 36.312C127.322 37.482 125.88 38.0652 124.084 38.0652C122.353 38.0652 120.974 37.5048 119.946 36.384C118.918 35.2632 118.404 33.8484 118.404 32.1432C118.404 30.3588 118.933 28.8972 119.994 27.7608C121.053 26.6232 122.482 26.0544 124.278 26.0544C126.01 26.0544 127.403 26.6148 128.454 27.7368C129.46 28.8252 129.962 30.2304 129.962 31.9524ZM127.242 32.0352C127.242 30.9732 127.009 30.0624 126.538 29.3028C125.989 28.3836 125.203 27.9252 124.185 27.9252C123.131 27.9252 122.331 28.3848 121.781 29.3028C121.31 30.0636 121.078 30.9888 121.078 32.0832C121.078 33.1452 121.31 34.056 121.781 34.8144C122.348 35.7336 123.14 36.192 124.161 36.192C125.162 36.192 125.948 35.724 126.515 34.7904C126.998 34.0164 127.242 33.096 127.242 32.0352Z" fill="#181920"/>
<path d="M138.483 28.5396C138.223 28.4928 137.947 28.4688 137.657 28.4688C136.734 28.4688 136.021 28.8084 135.519 29.4888C135.083 30.0888 134.864 30.8472 134.864 31.7628V37.8048H132.244L132.268 29.916C132.268 28.5888 132.235 27.3804 132.17 26.2908H134.453L134.549 28.494H134.622C134.898 27.7368 135.335 27.1272 135.933 26.67C136.517 26.2584 137.147 26.0532 137.827 26.0532C138.07 26.0532 138.289 26.07 138.483 26.1V28.5396Z" fill="#181920"/>
<path d="M150.206 31.5024C150.206 31.9608 150.175 32.3472 150.11 32.6628H142.245C142.276 33.8004 142.656 34.6704 143.386 35.2704C144.049 35.8068 144.906 36.0756 145.959 36.0756C147.123 36.0756 148.186 35.8944 149.141 35.5308L149.552 37.3068C148.435 37.782 147.117 38.0184 145.596 38.0184C143.766 38.0184 142.33 37.4928 141.285 36.4428C140.242 35.3928 139.72 33.9828 139.72 32.214C139.72 30.4776 140.205 29.0316 141.178 27.8784C142.196 26.6472 143.572 26.0316 145.303 26.0316C147.004 26.0316 148.291 26.6472 149.166 27.8784C149.858 28.8564 150.206 30.066 150.206 31.5024ZM147.706 30.8388C147.723 30.0804 147.552 29.4252 147.197 28.872C146.743 28.1604 146.046 27.8052 145.108 27.8052C144.251 27.8052 143.554 28.152 143.021 28.848C142.585 29.4012 142.325 30.0648 142.245 30.8376H147.706V30.8388Z" fill="#181920"/>
<path d="M60.3131 12.0108C60.3131 13.4232 59.8791 14.4864 59.0122 15.2004C58.2092 15.8592 57.0681 16.1892 55.5901 16.1892C54.8572 16.1892 54.2301 16.158 53.7051 16.0956V8.37841C54.39 8.27041 55.1278 8.21521 55.9246 8.21521C57.3325 8.21521 58.3937 8.51401 59.1093 9.11161C59.911 9.78721 60.3131 10.7532 60.3131 12.0108ZM58.9544 12.0456C58.9544 11.13 58.706 10.428 58.2092 9.93841C57.7124 9.45001 56.987 9.20521 56.0315 9.20521C55.6258 9.20521 55.2802 9.23161 54.9937 9.28681V15.1536C55.1524 15.1776 55.4425 15.1884 55.8643 15.1884C56.8505 15.1884 57.6116 14.9208 58.1477 14.3856C58.6839 13.8504 58.9544 13.0704 58.9544 12.0456Z" fill="#181920"/>
<path d="M67.517 13.2444C67.517 14.1144 67.2625 14.8272 66.7534 15.3864C66.2198 15.9612 65.5128 16.248 64.6299 16.248C63.779 16.248 63.1014 15.9732 62.5961 15.4212C62.0919 14.8704 61.8398 14.1756 61.8398 13.338C61.8398 12.462 62.0993 11.7432 62.6207 11.1852C63.142 10.6272 63.8429 10.3476 64.7258 10.3476C65.5767 10.3476 66.2604 10.6224 66.778 11.1732C67.2699 11.7084 67.517 12.3996 67.517 13.2444ZM66.1804 13.2852C66.1804 12.7632 66.0649 12.3156 65.8349 11.9424C65.5644 11.4912 65.1795 11.2656 64.6791 11.2656C64.1614 11.2656 63.7679 11.4912 63.4974 11.9424C63.2662 12.3156 63.1519 12.7704 63.1519 13.308C63.1519 13.83 63.2674 14.2776 63.4974 14.6508C63.7765 15.102 64.1651 15.3276 64.6668 15.3276C65.1586 15.3276 65.5447 15.0984 65.8226 14.6388C66.0612 14.2584 66.1804 13.8072 66.1804 13.2852Z" fill="#181920"/>
<path d="M77.1777 10.4628L75.364 16.1196H74.1835L73.4322 13.6632C73.2416 13.05 73.0867 12.4404 72.9662 11.8356H72.9428C72.8309 12.4572 72.676 13.0656 72.4768 13.6632L71.6788 16.1196H70.4848L68.7793 10.4628H70.1036L70.759 13.152C70.9176 13.788 71.048 14.394 71.1525 14.9676H71.1758C71.2718 14.4948 71.4304 13.8924 71.6542 13.164L72.4768 10.464H73.5269L74.3151 13.1064C74.5057 13.7508 74.6606 14.3712 74.7799 14.9688H74.8155C74.9029 14.3868 75.0344 13.7664 75.209 13.1064L75.9124 10.464H77.1777V10.4628Z" fill="#181920"/>
<path d="M83.8572 16.1196H82.5685V12.8796C82.5685 11.8812 82.18 11.382 81.4004 11.382C81.018 11.382 80.7093 11.5188 80.4696 11.7936C80.2322 12.0684 80.1117 12.3924 80.1117 12.7632V16.1184H78.8231V12.0792C78.8231 11.5824 78.8071 11.0436 78.7764 10.4604H79.9089L79.9691 11.3448H80.0048C80.1548 11.07 80.3786 10.8432 80.6725 10.662C81.0217 10.4508 81.4127 10.344 81.8406 10.344C82.3816 10.344 82.8317 10.5144 83.1895 10.8564C83.6346 11.2752 83.8572 11.9004 83.8572 12.7308V16.1196Z" fill="#181920"/>
<path d="M87.4114 16.1196H86.124V7.86725H87.4114V16.1196Z" fill="#181920"/>
<path d="M94.9985 13.2444C94.9985 14.1144 94.744 14.8272 94.2349 15.3864C93.7012 15.9612 92.993 16.248 92.1113 16.248C91.2592 16.248 90.5817 15.9732 90.0775 15.4212C89.5734 14.8704 89.3213 14.1756 89.3213 13.338C89.3213 12.462 89.5807 11.7432 90.1021 11.1852C90.6235 10.6272 91.3244 10.3476 92.206 10.3476C93.0581 10.3476 93.7406 10.6224 94.2595 11.1732C94.7513 11.7084 94.9985 12.3996 94.9985 13.2444ZM93.6607 13.2852C93.6607 12.7632 93.5451 12.3156 93.3151 11.9424C93.0458 11.4912 92.6597 11.2656 92.1605 11.2656C91.6416 11.2656 91.2481 11.4912 90.9788 11.9424C90.7477 12.3156 90.6333 12.7704 90.6333 13.308C90.6333 13.83 90.7489 14.2776 90.9788 14.6508C91.258 15.102 91.6465 15.3276 92.1482 15.3276C92.6401 15.3276 93.0249 15.0984 93.3028 14.6388C93.5426 14.2584 93.6607 13.8072 93.6607 13.2852Z" fill="#181920"/>
<path d="M101.235 16.1196H100.078L99.9822 15.468H99.9466C99.5506 15.9876 98.9862 16.248 98.2534 16.248C97.7062 16.248 97.2635 16.0764 96.9303 15.7356C96.6278 15.426 96.4766 15.0408 96.4766 14.5836C96.4766 13.8924 96.7717 13.3656 97.3656 13.0008C97.9583 12.636 98.792 12.4572 99.8654 12.4656V12.36C99.8654 11.6148 99.4646 11.2428 98.6616 11.2428C98.0898 11.2428 97.5857 11.3832 97.1504 11.6616L96.8885 10.836C97.4271 10.5108 98.0923 10.3476 98.8768 10.3476C100.392 10.3476 101.152 11.1276 101.152 12.6876V14.7708C101.152 15.336 101.18 15.786 101.235 16.1196ZM99.8974 14.1756V13.3032C98.4759 13.2792 97.7652 13.6596 97.7652 14.4432C97.7652 14.7384 97.8464 14.9592 98.0124 15.1068C98.1784 15.2544 98.3899 15.3276 98.6419 15.3276C98.9248 15.3276 99.1891 15.24 99.4301 15.066C99.6724 14.8908 99.8211 14.6688 99.8765 14.3964C99.89 14.3352 99.8974 14.2608 99.8974 14.1756Z" fill="#181920"/>
<path d="M108.557 16.1196H107.413L107.353 15.2112H107.317C106.952 15.9024 106.33 16.248 105.456 16.248C104.757 16.248 104.176 15.9804 103.714 15.4452C103.253 14.91 103.023 14.2152 103.023 13.362C103.023 12.4464 103.273 11.7048 103.775 11.1384C104.26 10.6104 104.856 10.3464 105.564 10.3464C106.342 10.3464 106.887 10.602 107.197 11.1144H107.221V7.86725H108.511V14.5956C108.511 15.1464 108.526 15.654 108.557 16.1196ZM107.221 13.734V12.7908C107.221 12.6276 107.209 12.4956 107.186 12.3948C107.113 12.0924 106.957 11.838 106.72 11.6328C106.48 11.4276 106.191 11.3244 105.858 11.3244C105.377 11.3244 105.001 11.5104 104.724 11.8836C104.45 12.2568 104.311 12.7332 104.311 13.3152C104.311 13.8744 104.442 14.328 104.707 14.6772C104.986 15.0492 105.362 15.2352 105.833 15.2352C106.256 15.2352 106.594 15.0804 106.851 14.7696C107.1 14.4828 107.221 14.1372 107.221 13.734Z" fill="#181920"/>
<path d="M119.579 13.2444C119.579 14.1144 119.324 14.8272 118.815 15.3864C118.281 15.9612 117.576 16.248 116.691 16.248C115.842 16.248 115.164 15.9732 114.658 15.4212C114.153 14.8704 113.901 14.1756 113.901 13.338C113.901 12.462 114.161 11.7432 114.682 11.1852C115.204 10.6272 115.904 10.3476 116.789 10.3476C117.638 10.3476 118.323 10.6224 118.84 11.1732C119.331 11.7084 119.579 12.3996 119.579 13.2444ZM118.243 13.2852C118.243 12.7632 118.128 12.3156 117.898 11.9424C117.626 11.4912 117.242 11.2656 116.741 11.2656C116.224 11.2656 115.831 11.4912 115.559 11.9424C115.328 12.3156 115.213 12.7704 115.213 13.308C115.213 13.83 115.329 14.2776 115.559 14.6508C115.838 15.102 116.227 15.3276 116.728 15.3276C117.22 15.3276 117.607 15.0984 117.885 14.6388C118.123 14.2584 118.243 13.8072 118.243 13.2852Z" fill="#181920"/>
<path d="M126.508 16.1196H125.221V12.8796C125.221 11.8812 124.832 11.382 124.052 11.382C123.669 11.382 123.36 11.5188 123.122 11.7936C122.883 12.0684 122.764 12.3924 122.764 12.7632V16.1184H121.474V12.0792C121.474 11.5824 121.459 11.0436 121.429 10.4604H122.56L122.62 11.3448H122.656C122.807 11.07 123.031 10.8432 123.324 10.662C123.674 10.4508 124.064 10.344 124.493 10.344C125.033 10.344 125.483 10.5144 125.841 10.8564C126.287 11.2752 126.508 11.9004 126.508 12.7308V16.1196Z" fill="#181920"/>
<path d="M135.18 11.4048H133.761V14.1528C133.761 14.8512 134.013 15.2004 134.512 15.2004C134.743 15.2004 134.935 15.1812 135.086 15.1416L135.119 16.0956C134.865 16.1892 134.53 16.236 134.119 16.236C133.609 16.236 133.213 16.0848 132.927 15.7824C132.639 15.48 132.497 14.9712 132.497 14.2572V11.4048H131.649V10.4628H132.497V9.42602L133.759 9.05402V10.4616H135.178V11.4048H135.18Z" fill="#181920"/>
<path d="M142.002 16.1196H140.712V12.9036C140.712 11.8896 140.323 11.382 139.545 11.382C138.947 11.382 138.539 11.676 138.315 12.264C138.277 12.3876 138.255 12.5388 138.255 12.7164V16.1184H136.968V7.86725H138.255V11.2764H138.28C138.686 10.656 139.267 10.3464 140.021 10.3464C140.555 10.3464 140.996 10.5168 141.347 10.8588C141.783 11.2848 142.002 11.9184 142.002 12.756V16.1196Z" fill="#181920"/>
<path d="M149.039 13.0236C149.039 13.2492 149.022 13.4388 148.991 13.5936H145.126C145.144 14.1528 145.328 14.5788 145.686 14.874C146.013 15.138 146.435 15.27 146.951 15.27C147.523 15.27 148.044 15.1812 148.514 15.0024L148.716 15.876C148.166 16.1088 147.519 16.2252 146.77 16.2252C145.873 16.2252 145.166 15.9672 144.654 15.4512C144.14 14.9352 143.886 14.2428 143.886 13.374C143.886 12.5208 144.123 11.8104 144.601 11.244C145.101 10.6392 145.776 10.3368 146.628 10.3368C147.462 10.3368 148.095 10.6392 148.523 11.244C148.868 11.724 149.039 12.318 149.039 13.0236ZM147.809 12.6984C147.819 12.3252 147.734 12.0036 147.56 11.7324C147.336 11.3832 146.995 11.208 146.534 11.208C146.114 11.208 145.771 11.3784 145.509 11.7204C145.295 11.9928 145.168 12.318 145.126 12.6984H147.809Z" fill="#181920"/>
</svg>
