<svg width="166" height="48" viewBox="0 0 166 48" fill="none" xmlns="http://www.w3.org/2000/svg">
<path d="M159.852 0.961503C162.698 0.961503 165.015 3.222 165.015 6V42C165.015 44.778 162.698 47.0385 159.852 47.0385H6.14815C3.30156 47.0385 0.98524 44.778 0.98524 42V6C0.98524 3.222 3.30156 0.961503 6.14815 0.961503H159.852ZM159.852 2.53677e-06H6.14815C2.7682 2.53677e-06 0 2.7015 0 6V42C0 45.2985 2.7682 48 6.14815 48H159.852C163.232 48 166 45.2985 166 42V6C166 2.7015 163.232 2.53677e-06 159.852 2.53677e-06Z" fill="#A1A3B3"/>
<path d="M58.3054 12.2925C58.3054 13.2945 57.998 14.097 57.3924 14.6955C56.6961 15.405 55.7892 15.762 54.678 15.762C53.6159 15.762 52.709 15.399 51.9651 14.6835C51.2196 13.9575 50.8477 13.0665 50.8477 12C50.8477 10.9335 51.2196 10.0425 51.9651 9.32248C52.709 8.60098 53.6159 8.23798 54.678 8.23798C55.2067 8.23798 55.7108 8.34448 56.1919 8.54248C56.6715 8.74198 57.0619 9.01198 57.3447 9.34498L56.7022 9.97798C56.2088 9.40948 55.5372 9.12898 54.678 9.12898C53.9033 9.12898 53.2316 9.39298 52.6614 9.92548C52.0973 10.4595 51.8144 11.151 51.8144 12C51.8144 12.849 52.0973 13.5465 52.6614 14.0805C53.2316 14.607 53.9033 14.877 54.678 14.877C55.5003 14.877 56.1919 14.607 56.7376 14.0745C57.0973 13.722 57.3017 13.236 57.3555 12.615H54.678V11.748H58.25C58.2931 11.9355 58.3054 12.117 58.3054 12.2925Z" fill="#575966"/>
<path d="M63.9732 9.28645H60.6179V11.5665H63.6427V12.4335H60.6179V14.7135H63.9732V15.597H59.668V8.40295H63.9732V9.28645Z" fill="#575966"/>
<path d="M67.9728 15.597H67.0229V9.28645H64.9648V8.40295H70.0324V9.28645H67.9728V15.597Z" fill="#575966"/>
<path d="M73.6992 15.597V8.40295H74.6471V15.597H73.6992Z" fill="#575966"/>
<path d="M78.8517 15.597H77.9095V9.28645H75.8438V8.40295H80.9175V9.28645H78.8517V15.597Z" fill="#575966"/>
<path d="M90.5117 14.6715C89.7847 15.399 88.884 15.762 87.8096 15.762C86.7291 15.762 85.8284 15.399 85.1013 14.6715C84.3759 13.9455 84.0146 13.0545 84.0146 12C84.0146 10.9455 84.3759 10.0545 85.1013 9.32848C85.8284 8.60098 86.7291 8.23798 87.8096 8.23798C88.8778 8.23798 89.7785 8.60098 90.5056 9.33448C91.2372 10.0665 91.5984 10.9515 91.5984 12C91.5984 13.0545 91.2372 13.9455 90.5117 14.6715ZM85.8038 14.0685C86.3509 14.607 87.0165 14.877 87.8096 14.877C88.5966 14.877 89.2682 14.607 89.8093 14.0685C90.3549 13.53 90.6316 12.8385 90.6316 12C90.6316 11.1615 90.3549 10.47 89.8093 9.93148C89.2682 9.39298 88.5966 9.12298 87.8096 9.12298C87.0165 9.12298 86.3509 9.39298 85.8038 9.93148C85.2581 10.47 84.9814 11.1615 84.9814 12C84.9814 12.8385 85.2581 13.53 85.8038 14.0685Z" fill="#575966"/>
<path d="M92.9307 15.597V8.40295H94.0834L97.6678 13.998H97.7093L97.6678 12.615V8.40295H98.6162V15.597H97.6263L93.8729 9.72595H93.8314L93.8729 11.115V15.597H92.9307Z" fill="#575966"/>
<path d="M83.7807 26.103C80.8926 26.103 78.5332 28.248 78.5332 31.2075C78.5332 34.143 80.8926 36.3105 83.7807 36.3105C86.6749 36.3105 89.0343 34.143 89.0343 31.2075C89.0343 28.248 86.6749 26.103 83.7807 26.103ZM83.7807 34.3005C82.196 34.3005 80.8326 33.024 80.8326 31.2075C80.8326 29.367 82.196 28.113 83.7807 28.113C85.3653 28.113 86.7348 29.367 86.7348 31.2075C86.7348 33.024 85.3653 34.3005 83.7807 34.3005ZM72.3313 26.103C69.437 26.103 67.0838 28.248 67.0838 31.2075C67.0838 34.143 69.437 36.3105 72.3313 36.3105C75.224 36.3105 77.5787 34.143 77.5787 31.2075C77.5787 28.248 75.224 26.103 72.3313 26.103ZM72.3313 34.3005C70.7451 34.3005 69.3771 33.024 69.3771 31.2075C69.3771 29.367 70.7451 28.113 72.3313 28.113C73.916 28.113 75.2793 29.367 75.2793 31.2075C75.2793 33.024 73.916 34.3005 72.3313 34.3005ZM58.707 27.6675V29.8365H64.0144C63.8591 31.0485 63.4441 31.9395 62.8078 32.5605C62.0331 33.3105 60.8266 34.143 58.707 34.143C55.4408 34.143 52.8832 31.5705 52.8832 28.383C52.8832 25.1955 55.4408 22.623 58.707 22.623C60.473 22.623 61.758 23.2965 62.7064 24.1695L64.2726 22.641C62.9461 21.405 61.1816 20.4555 58.707 20.4555C54.2281 20.4555 50.4639 24.012 50.4639 28.383C50.4639 32.754 54.2281 36.3105 58.707 36.3105C61.1278 36.3105 62.9461 35.5365 64.3756 34.0845C65.8404 32.655 66.2969 30.645 66.2969 29.022C66.2969 28.518 66.2538 28.0545 66.177 27.6675H58.707ZM114.418 29.349C113.987 28.2075 112.654 26.103 109.939 26.103C107.25 26.103 105.01 28.1715 105.01 31.2075C105.01 34.0665 107.227 36.3105 110.198 36.3105C112.6 36.3105 113.987 34.881 114.557 34.0485L112.774 32.889C112.179 33.738 111.369 34.3005 110.198 34.3005C109.034 34.3005 108.2 33.78 107.665 32.754L114.66 29.9295L114.418 29.349ZM107.287 31.0485C107.227 29.0805 108.853 28.0725 110.018 28.0725C110.931 28.0725 111.706 28.518 111.964 29.1555L107.287 31.0485ZM101.601 36H103.9V21H101.601V36ZM97.8353 27.24H97.7585C97.242 26.643 96.2568 26.103 95.0087 26.103C92.3896 26.103 89.9949 28.347 89.9949 31.224C89.9949 34.0845 92.3896 36.3105 95.0087 36.3105C96.2568 36.3105 97.242 35.766 97.7585 35.151H97.8353V35.883C97.8353 37.8345 96.7671 38.883 95.0441 38.883C93.6392 38.883 92.7677 37.893 92.4081 37.0605L90.4084 37.875C90.9848 39.228 92.511 40.893 95.0441 40.893C97.74 40.893 100.015 39.345 100.015 35.5785V26.4135H97.8353V27.24ZM95.2055 34.3005C93.6208 34.3005 92.2943 33.006 92.2943 31.224C92.2943 29.4255 93.6208 28.113 95.2055 28.113C96.7671 28.113 97.9983 29.4255 97.9983 31.224C97.9983 33.006 96.7671 34.3005 95.2055 34.3005ZM125.184 21H119.684V36H121.978V30.3165H125.184C127.731 30.3165 130.228 28.518 130.228 25.6575C130.228 22.7985 127.725 21 125.184 21ZM125.244 28.23H121.978V23.0865H125.244C126.956 23.0865 127.934 24.474 127.934 25.6575C127.934 26.8185 126.956 28.23 125.244 28.23ZM139.42 26.0745C137.763 26.0745 136.04 26.7885 135.331 28.371L137.366 29.2035C137.804 28.371 138.61 28.101 139.461 28.101C140.651 28.101 141.858 28.7985 141.876 30.03V30.1875C141.461 29.9535 140.573 29.607 139.48 29.607C137.288 29.607 135.055 30.7845 135.055 32.982C135.055 34.992 136.85 36.2865 138.868 36.2865C140.411 36.2865 141.263 35.607 141.798 34.8165H141.876V35.976H144.091V30.222C144.091 27.5625 142.056 26.0745 139.42 26.0745ZM139.143 34.2945C138.393 34.2945 137.348 33.9315 137.348 33.024C137.348 31.863 138.651 31.4175 139.78 31.4175C140.789 31.4175 141.263 31.635 141.876 31.9215C141.696 33.3105 140.471 34.2945 139.143 34.2945ZM152.16 26.403L149.524 32.9055H149.446L146.721 26.403H144.248L148.342 35.49L146.006 40.5465H148.402L154.712 26.403H152.16ZM131.489 36H133.788V21H131.489V36Z" fill="#181920"/>
<path d="M12.831 9.04652C12.4698 9.41552 12.2607 9.99002 12.2607 10.734V37.272C12.2607 38.016 12.4698 38.5905 12.831 38.9595L12.9201 39.0405L28.1583 24.1755V23.8245L12.9201 8.95952L12.831 9.04652Z" fill="url(#paint0_linear)"/>
<path d="M33.232 29.133L28.1582 24.1755V23.8245L33.2381 18.867L33.3519 18.9315L39.3678 22.272C41.0847 23.22 41.0847 24.78 39.3678 25.734L33.3519 29.0685L33.232 29.133Z" fill="url(#paint1_linear)"/>
<path d="M33.353 29.0685L28.1594 24L12.832 38.9595C13.4023 39.5445 14.3322 39.615 15.3897 39.03L33.353 29.0685Z" fill="url(#paint2_linear)"/>
<path d="M33.353 18.9315L15.3897 8.97C14.3322 8.391 13.4023 8.4615 12.832 9.0465L28.1594 24L33.353 18.9315Z" fill="url(#paint3_linear)"/>
<defs>
<linearGradient id="paint0_linear" x1="26.8053" y1="37.5484" x2="6.67245" y2="16.9184" gradientUnits="userSpaceOnUse">
<stop stop-color="#00A0FF"/>
<stop offset="0.0066" stop-color="#00A1FF"/>
<stop offset="0.2601" stop-color="#00BEFF"/>
<stop offset="0.5122" stop-color="#00D2FF"/>
<stop offset="0.7604" stop-color="#00DFFF"/>
<stop offset="1" stop-color="#00E3FF"/>
</linearGradient>
<linearGradient id="paint1_linear" x1="41.6035" y1="23.9983" x2="11.8502" y2="23.9983" gradientUnits="userSpaceOnUse">
<stop stop-color="#FFE000"/>
<stop offset="0.4087" stop-color="#FFBD00"/>
<stop offset="0.7754" stop-color="#FFA500"/>
<stop offset="1" stop-color="#FF9C00"/>
</linearGradient>
<linearGradient id="paint2_linear" x1="30.5289" y1="21.2447" x2="3.22702" y2="-6.73124" gradientUnits="userSpaceOnUse">
<stop stop-color="#FF3A44"/>
<stop offset="1" stop-color="#C31162"/>
</linearGradient>
<linearGradient id="paint3_linear" x1="8.97382" y1="47.7886" x2="21.1653" y2="35.2962" gradientUnits="userSpaceOnUse">
<stop stop-color="#32A071"/>
<stop offset="0.0685" stop-color="#2DA771"/>
<stop offset="0.4762" stop-color="#15CF74"/>
<stop offset="0.8009" stop-color="#06E775"/>
<stop offset="1" stop-color="#00F076"/>
</linearGradient>
</defs>
</svg>
