<svg width="231" height="64" viewBox="0 0 231 64" fill="none" xmlns="http://www.w3.org/2000/svg">
<rect opacity="0.3" x="0.5" y="0.5" width="230" height="63" rx="1.5" stroke="#A1A3B3"/>
<path d="M73.632 37C73.5253 37 73.4347 36.9627 73.36 36.888C73.2853 36.8133 73.248 36.7227 73.248 36.616V26.2C73.248 26.0827 73.28 25.9867 73.344 25.912C73.4187 25.8373 73.5147 25.8 73.632 25.8H82.048C82.1653 25.8 82.256 25.8373 82.32 25.912C82.3947 25.9867 82.432 26.0827 82.432 26.2V36.616C82.432 36.7227 82.3947 36.8133 82.32 36.888C82.256 36.9627 82.1653 37 82.048 37H80.56C80.4533 37 80.3627 36.9627 80.288 36.888C80.2133 36.8133 80.176 36.7227 80.176 36.616V27.832H75.504V36.616C75.504 36.7227 75.4667 36.8133 75.392 36.888C75.3173 36.9627 75.2213 37 75.104 37H73.632ZM85.3195 37C85.2128 37 85.1222 36.9627 85.0475 36.888C84.9728 36.8133 84.9355 36.7227 84.9355 36.616V26.2C84.9355 26.0827 84.9675 25.9867 85.0315 25.912C85.1062 25.8373 85.2022 25.8 85.3195 25.8H89.6075C90.8982 25.8 91.9115 26.104 92.6475 26.712C93.3835 27.32 93.7515 28.2053 93.7515 29.368C93.7515 30.52 93.3835 31.3947 92.6475 31.992C91.9115 32.5787 90.8982 32.872 89.6075 32.872H87.2555V36.616C87.2555 36.7333 87.2182 36.8293 87.1435 36.904C87.0688 36.968 86.9728 37 86.8555 37H85.3195ZM89.5275 31.08C90.1462 31.08 90.6155 30.936 90.9355 30.648C91.2662 30.3493 91.4315 29.9173 91.4315 29.352C91.4315 28.7973 91.2715 28.3653 90.9515 28.056C90.6422 27.7467 90.1675 27.592 89.5275 27.592H87.2235V31.08H89.5275ZM95.882 37C95.7753 37 95.6847 36.9627 95.61 36.888C95.5353 36.8133 95.498 36.7227 95.498 36.616V26.2C95.498 26.0827 95.53 25.9867 95.594 25.912C95.6687 25.8373 95.7647 25.8 95.882 25.8H102.938C103.055 25.8 103.151 25.8373 103.226 25.912C103.301 25.9867 103.338 26.0827 103.338 26.2V27.272C103.338 27.3893 103.301 27.4853 103.226 27.56C103.151 27.624 103.055 27.656 102.938 27.656H97.69V30.456H102.586C102.703 30.456 102.799 30.4933 102.874 30.568C102.949 30.6427 102.986 30.7387 102.986 30.856V31.864C102.986 31.9813 102.949 32.0773 102.874 32.152C102.799 32.216 102.703 32.248 102.586 32.248H97.69V35.144H103.066C103.183 35.144 103.279 35.1813 103.354 35.256C103.429 35.32 103.466 35.4107 103.466 35.528V36.616C103.466 36.7333 103.429 36.8293 103.354 36.904C103.279 36.968 103.183 37 103.066 37H95.882ZM105.019 39.224C104.912 39.224 104.821 39.1867 104.747 39.112C104.672 39.048 104.635 38.9573 104.635 38.84V35.352C104.635 35.2453 104.672 35.1547 104.747 35.08C104.821 35.0053 104.912 34.968 105.019 34.968H105.339C105.84 34.968 106.203 34.5093 106.427 33.592C106.661 32.6747 106.779 31.32 106.779 29.528V26.184C106.779 26.0773 106.816 25.9867 106.891 25.912C106.965 25.8373 107.056 25.8 107.163 25.8H114.075C114.192 25.8 114.288 25.8373 114.363 25.912C114.437 25.9867 114.475 26.0827 114.475 26.2V34.968H115.243C115.349 34.968 115.44 35.0053 115.515 35.08C115.6 35.1547 115.643 35.2453 115.643 35.352V38.84C115.643 38.9467 115.605 39.0373 115.531 39.112C115.456 39.1867 115.36 39.224 115.243 39.224H113.771C113.664 39.224 113.573 39.1867 113.499 39.112C113.424 39.048 113.387 38.9573 113.387 38.84V37H106.891V38.84C106.891 38.9573 106.853 39.048 106.779 39.112C106.715 39.1867 106.624 39.224 106.507 39.224H105.019ZM112.219 34.968V27.832H108.971V29.816C108.971 32.3227 108.677 34.04 108.091 34.968H112.219ZM117.788 37C117.682 37 117.591 36.9627 117.516 36.888C117.442 36.8133 117.404 36.7227 117.404 36.616V26.184C117.404 26.0667 117.442 25.976 117.516 25.912C117.591 25.8373 117.682 25.8 117.788 25.8H119.26C119.378 25.8 119.474 25.8373 119.548 25.912C119.623 25.9867 119.66 26.0773 119.66 26.184V29.832H121.42C122.7 29.832 123.687 30.1307 124.38 30.728C125.074 31.3253 125.42 32.2053 125.42 33.368C125.42 34.0613 125.266 34.6853 124.956 35.24C124.658 35.784 124.204 36.216 123.596 36.536C122.999 36.8453 122.274 37 121.42 37H117.788ZM127.18 37C127.074 37 126.983 36.9627 126.908 36.888C126.834 36.8133 126.796 36.7227 126.796 36.616V26.184C126.796 26.0667 126.834 25.976 126.908 25.912C126.983 25.8373 127.074 25.8 127.18 25.8H128.716C128.834 25.8 128.924 25.8373 128.988 25.912C129.063 25.976 129.1 26.0667 129.1 26.184V36.616C129.1 36.7227 129.063 36.8133 128.988 36.888C128.924 36.9627 128.834 37 128.716 37H127.18ZM121.324 35.192C121.879 35.192 122.311 35.0267 122.62 34.696C122.94 34.3547 123.1 33.9067 123.1 33.352C123.1 32.7867 122.951 32.36 122.652 32.072C122.354 31.7733 121.911 31.624 121.324 31.624H119.66V35.192H121.324ZM131.128 39.224C131.021 39.224 130.931 39.1867 130.856 39.112C130.781 39.048 130.744 38.9573 130.744 38.84V35.352C130.744 35.2453 130.781 35.1547 130.856 35.08C130.931 35.0053 131.021 34.968 131.128 34.968H131.448C131.949 34.968 132.312 34.5093 132.536 33.592C132.771 32.6747 132.888 31.32 132.888 29.528V26.184C132.888 26.0773 132.925 25.9867 133 25.912C133.075 25.8373 133.165 25.8 133.272 25.8H140.184C140.301 25.8 140.397 25.8373 140.472 25.912C140.547 25.9867 140.584 26.0827 140.584 26.2V34.968H141.352C141.459 34.968 141.549 35.0053 141.624 35.08C141.709 35.1547 141.752 35.2453 141.752 35.352V38.84C141.752 38.9467 141.715 39.0373 141.64 39.112C141.565 39.1867 141.469 39.224 141.352 39.224H139.88C139.773 39.224 139.683 39.1867 139.608 39.112C139.533 39.048 139.496 38.9573 139.496 38.84V37H133V38.84C133 38.9573 132.963 39.048 132.888 39.112C132.824 39.1867 132.733 39.224 132.616 39.224H131.128ZM138.328 34.968V27.832H135.08V29.816C135.08 32.3227 134.787 34.04 134.2 34.968H138.328ZM151.866 25.8C151.962 25.8 152.042 25.832 152.106 25.896C152.17 25.96 152.202 26.0347 152.202 26.12C152.202 26.2267 152.18 26.3173 152.138 26.392L148.922 33.736C148.548 34.5893 148.207 35.24 147.898 35.688C147.588 36.136 147.21 36.4667 146.762 36.68C146.324 36.8933 145.748 37 145.034 37H144.282C144.175 37 144.084 36.9627 144.01 36.888C143.935 36.8133 143.898 36.7227 143.898 36.616V35.4C143.898 35.2933 143.935 35.2027 144.01 35.128C144.084 35.0533 144.175 35.016 144.282 35.016H144.874C145.236 35.016 145.54 34.92 145.786 34.728C146.042 34.536 146.287 34.216 146.522 33.768L142.474 26.312C142.452 26.2267 142.442 26.1733 142.442 26.152C142.442 26.056 142.474 25.976 142.538 25.912C142.612 25.8373 142.698 25.8 142.794 25.8H144.394C144.575 25.8 144.714 25.9013 144.81 26.104L147.626 31.352L149.914 26.104C149.988 25.9013 150.138 25.8 150.362 25.8H151.866ZM165.819 39.24C165.712 39.24 165.622 39.2027 165.547 39.128C165.472 39.0533 165.435 38.9627 165.435 38.856V37H153.835C153.728 37 153.638 36.9627 153.563 36.888C153.488 36.8133 153.451 36.7227 153.451 36.616V26.184C153.451 26.0667 153.488 25.976 153.563 25.912C153.638 25.8373 153.728 25.8 153.835 25.8H155.307C155.424 25.8 155.52 25.8373 155.595 25.912C155.67 25.9867 155.707 26.0773 155.707 26.184V34.968H158.859V26.184C158.859 26.0773 158.896 25.9867 158.971 25.912C159.046 25.8373 159.142 25.8 159.259 25.8H160.731C160.848 25.8 160.939 25.8373 161.003 25.912C161.078 25.976 161.115 26.0667 161.115 26.184V34.968H164.283V26.184C164.283 26.0667 164.32 25.976 164.395 25.912C164.47 25.8373 164.56 25.8 164.667 25.8H166.139C166.256 25.8 166.352 25.8373 166.427 25.912C166.502 25.9867 166.539 26.0773 166.539 26.184V34.968H167.307C167.414 34.968 167.504 35.0053 167.579 35.08C167.654 35.1547 167.691 35.2453 167.691 35.352V38.856C167.691 38.9733 167.654 39.064 167.579 39.128C167.515 39.2027 167.424 39.24 167.307 39.24H165.819ZM168.779 37C168.683 37 168.603 36.968 168.539 36.904C168.475 36.84 168.443 36.76 168.443 36.664L168.475 36.52L172.315 26.2C172.421 25.9333 172.613 25.8 172.891 25.8H174.651C174.928 25.8 175.12 25.9333 175.227 26.2L179.067 36.52L179.099 36.664C179.099 36.76 179.061 36.84 178.987 36.904C178.923 36.968 178.848 37 178.763 37H177.339C177.115 37 176.96 36.8987 176.875 36.696L176.139 34.76H171.403L170.667 36.696C170.581 36.8987 170.427 37 170.203 37H168.779ZM171.963 32.904H175.579L173.771 27.976L171.963 32.904ZM188.608 25.8C188.725 25.8 188.816 25.8373 188.88 25.912C188.955 25.976 188.992 26.0667 188.992 26.184V36.616C188.992 36.7227 188.955 36.8133 188.88 36.888C188.816 36.9627 188.725 37 188.608 37H187.136C187.019 37 186.923 36.968 186.848 36.904C186.773 36.8293 186.736 36.7333 186.736 36.616V32.968H184.976L182.848 36.568C182.784 36.7067 182.704 36.8133 182.608 36.888C182.512 36.9627 182.379 37 182.208 37H180.736C180.651 37 180.571 36.968 180.496 36.904C180.432 36.84 180.4 36.76 180.4 36.664C180.4 36.6107 180.416 36.552 180.448 36.488L182.768 32.696C182.096 32.44 181.573 32.0347 181.2 31.48C180.827 30.9147 180.64 30.2267 180.64 29.416C180.64 28.744 180.789 28.136 181.088 27.592C181.397 27.0373 181.851 26.6 182.448 26.28C183.056 25.96 183.787 25.8 184.64 25.8H188.608ZM186.736 27.592H184.72C184.165 27.592 183.733 27.7627 183.424 28.104C183.115 28.4347 182.96 28.8773 182.96 29.432C182.96 30.5627 183.547 31.128 184.72 31.128H186.736V27.592Z" fill="#A1A3B3"/>
<path d="M48.5002 32.8L54.2002 38.4C54.6002 38.8 55.2002 38.8 55.6002 38.4C56.0002 38 56.0002 37.4 55.6002 37L50.7002 32L55.6002 27C56.0002 26.6 56.0002 26 55.6002 25.6C55.4002 25.4 55.2002 25.3 54.9002 25.3C54.6002 25.3 54.4002 25.4 54.2002 25.6L48.5002 31.2C48.1002 31.7 48.1002 32.3 48.5002 32.8C48.5002 32.7 48.5002 32.7 48.5002 32.8Z" fill="#A1A3B3"/>
</svg>
