<svg width="128" height="32" viewBox="0 0 128 32" fill="none" xmlns="http://www.w3.org/2000/svg">
<path d="M85.6509 27.5673C85.6509 26.2588 86.3724 25.8662 87.094 25.8662C87.7663 25.8662 88.4551 26.2424 88.5043 27.4528V27.5346H88.2091V27.4528C88.1435 26.4387 87.6515 26.1606 87.1104 26.1606C86.52 26.1606 85.9789 26.4878 85.9789 27.6491V29.1539C85.9789 30.3153 86.52 30.6424 87.1104 30.6424C87.6515 30.6424 88.1599 30.348 88.2091 29.3175V29.2521H88.5043V29.3339C88.4551 30.5606 87.7663 30.9368 87.094 30.9368C86.3888 30.9368 85.6509 30.5279 85.6509 29.2357V27.5673Z" fill="#FEFEFE"/>
<path d="M89.0781 28.516C89.0781 27.5673 89.6193 27.2729 90.1277 27.2729C90.636 27.2729 91.1772 27.5673 91.1772 28.516V29.2357H89.3405V29.5956C89.3405 30.4461 89.7013 30.6751 90.1277 30.6751C90.5048 30.6751 90.882 30.4788 90.9148 29.7264H91.1772C91.1608 30.6424 90.6196 30.9205 90.1277 30.9205C89.6193 30.9205 89.0781 30.626 89.0781 29.6773V28.516ZM90.9148 28.5814C90.9148 27.7309 90.5212 27.5182 90.1277 27.5182C89.7177 27.5182 89.3405 27.7309 89.3405 28.5814V29.0231H90.9148V28.5814Z" fill="#FEFEFE"/>
<path d="M92.6367 27.2729C93.5714 27.2729 93.8502 27.6327 93.8502 28.2379C93.8502 28.6469 93.719 28.9086 93.3255 29.0394C93.7518 29.1703 93.9322 29.4483 93.9322 29.9063C93.9322 30.5606 93.6042 30.9041 92.6367 30.9041H91.866V27.2729H92.6367ZM92.5875 28.9413C93.3911 28.9413 93.5878 28.7286 93.5878 28.2543C93.5878 27.7636 93.3911 27.5346 92.5875 27.5182H92.1447V28.9249H92.5875V28.9413ZM92.5875 30.6751C93.4239 30.6751 93.6698 30.4788 93.6698 29.939C93.6698 29.3993 93.4075 29.1866 92.5875 29.1866H92.1447V30.6751H92.5875Z" fill="#FEFEFE"/>
<path d="M94.5391 28.516C94.5391 27.5673 95.0802 27.2729 95.5886 27.2729C96.097 27.2729 96.6381 27.5673 96.6381 28.516V29.2357H94.8015V29.5956C94.8015 30.4461 95.1622 30.6751 95.5886 30.6751C95.9658 30.6751 96.3429 30.4788 96.3757 29.7264H96.6381C96.6217 30.6424 96.0806 30.9205 95.5886 30.9205C95.0802 30.9205 94.5391 30.626 94.5391 29.6773V28.516ZM96.3757 28.5814C96.3757 27.7309 95.9822 27.5182 95.5886 27.5182C95.1786 27.5182 94.8015 27.7309 94.8015 28.5814V29.0231H96.3757V28.5814Z" fill="#FEFEFE"/>
<path d="M97.5565 27.8454C97.7205 27.4365 98.0649 27.2729 98.4257 27.2729C98.9176 27.2729 99.426 27.5673 99.426 28.516V29.6773C99.426 30.626 98.9176 30.9205 98.4257 30.9205C98.0813 30.9205 97.7533 30.7569 97.5893 30.3807V32H97.3105V27.322H97.5237L97.5565 27.8454ZM99.1636 28.6469C99.1636 27.7472 98.7864 27.5182 98.3765 27.5182C97.9501 27.5182 97.5893 27.7472 97.5893 28.6469V29.5628C97.5893 30.4625 97.9665 30.6915 98.3765 30.6915C98.77 30.6915 99.1636 30.4625 99.1636 29.5628V28.6469Z" fill="#FEFEFE"/>
<path d="M102.23 27.3383V30.8714H101.968V29.1703H100.41V30.8714H100.147V27.3383H100.41V28.9249H101.968V27.3383H102.23Z" fill="#FEFEFE"/>
<path d="M103.263 27.3383V28.9413H103.706C104.641 28.9413 104.985 29.2521 104.985 29.9063V29.9718C104.969 30.6097 104.624 30.9205 103.69 30.9205H102.984V27.3383H103.263ZM104.723 29.9227C104.723 29.3829 104.46 29.1703 103.64 29.1703H103.247V30.6587H103.64C104.46 30.6587 104.723 30.4625 104.723 29.9391V29.9227ZM105.543 27.3383H105.805V30.8714H105.543V27.3383Z" fill="#FEFEFE"/>
<path d="M108.675 27.3383V30.8714H108.412V27.8617L106.838 30.8714H106.576V27.3383H106.838V30.3316L108.412 27.3383H108.675ZM108.462 25.9153C108.38 26.3079 108.035 26.5859 107.625 26.5859C107.215 26.5859 106.854 26.2915 106.789 25.9153H107.051C107.133 26.1606 107.363 26.3406 107.642 26.3406C107.92 26.3406 108.15 26.1606 108.232 25.9153H108.462Z" fill="#FEFEFE"/>
<path d="M114.037 30.8714L112.004 28.5487V30.8714H111.692V25.9316H112.004V28.1071L113.89 25.9316H114.25L112.25 28.3361L114.398 30.8714H114.037Z" fill="#FEFEFE"/>
<path d="M116.759 27.3383V30.8714H116.546L116.53 30.3643C116.366 30.7733 116.038 30.9368 115.677 30.9368C115.185 30.9368 114.66 30.6424 114.66 29.6937V28.5324C114.66 27.5837 115.185 27.2893 115.677 27.2893C116.038 27.2893 116.366 27.4528 116.53 27.8454L116.546 27.3547H116.759V27.3383ZM114.923 29.5629C114.923 30.4625 115.3 30.6915 115.71 30.6915C116.136 30.6915 116.497 30.4625 116.497 29.5629V28.6469C116.497 27.7473 116.12 27.5183 115.71 27.5183C115.316 27.5183 114.923 27.7473 114.923 28.6469V29.5629Z" fill="#FEFEFE"/>
<path d="M118.285 27.2729C119.219 27.2729 119.498 27.6327 119.498 28.2379C119.498 28.6469 119.367 28.9086 118.973 29.0394C119.4 29.1703 119.58 29.4483 119.58 29.9063C119.58 30.5606 119.252 30.9041 118.285 30.9041H117.514V27.2729H118.285ZM118.235 28.9413C119.039 28.9413 119.236 28.7286 119.236 28.2543C119.236 27.7636 119.039 27.5346 118.235 27.5182H117.793V28.9249H118.235V28.9413ZM118.235 30.6751C119.072 30.6751 119.318 30.4788 119.318 29.939C119.318 29.3993 119.055 29.1866 118.235 29.1866H117.793V30.6751H118.235Z" fill="#FEFEFE"/>
<path d="M121.876 30.8714L120.498 29.203V30.8714H120.236V27.3383H120.498V28.9249L121.794 27.3383H122.089L120.712 29.0721L122.155 30.8714H121.876Z" fill="#FEFEFE"/>
<path d="M124.631 27.3383V30.8714H124.418L124.401 30.3643C124.237 30.7733 123.909 30.9368 123.548 30.9368C123.057 30.9368 122.532 30.6424 122.532 29.6937V28.5324C122.532 27.5837 123.057 27.2893 123.548 27.2893C123.909 27.2893 124.237 27.4528 124.401 27.8454L124.418 27.3547H124.631V27.3383ZM122.778 29.5629C122.778 30.4625 123.155 30.6915 123.565 30.6915C123.991 30.6915 124.352 30.4625 124.352 29.5629V28.6469C124.352 27.7473 123.975 27.5183 123.565 27.5183C123.171 27.5183 122.778 27.7473 122.778 28.6469V29.5629Z" fill="#FEFEFE"/>
<path d="M126.402 27.2729C127.042 27.2729 127.419 27.6655 127.419 28.2379C127.419 28.6142 127.271 28.9249 126.812 29.0558C127.304 29.1703 127.501 29.4974 127.501 29.9554C127.501 30.577 127.025 30.9205 126.402 30.9205H126.238C125.828 30.8877 125.238 30.6751 125.238 29.9881H125.5C125.5 30.5442 126.009 30.6751 126.304 30.6751H126.337C126.894 30.6751 127.238 30.4134 127.238 29.9227C127.238 29.432 126.927 29.1703 126.287 29.1703H125.943V28.9249H126.271C126.927 28.9249 127.156 28.6632 127.156 28.2379C127.156 27.7963 126.878 27.5019 126.337 27.5019H126.304C126.009 27.5019 125.5 27.6327 125.5 28.1889H125.238C125.238 27.5019 125.828 27.2893 126.238 27.2565H126.402V27.2729Z" fill="#FEFEFE"/>
<path d="M10.3808 29.9772H0V29.3644H2.8672V7.2262H0V6.61338H7.168V8.29864C7.4752 7.58368 7.9488 6.99639 8.5888 6.56231C9.2288 6.12823 9.9328 5.91118 10.7264 5.91118C11.84 5.91118 12.9152 6.30697 13.952 7.1113C14.9888 7.91563 15.8336 8.98806 16.4608 10.3414C17.1008 11.6947 17.408 13.1502 17.408 14.695C17.408 16.2526 17.088 17.7208 16.4608 19.0741C15.8208 20.4274 14.9888 21.4999 13.952 22.3042C12.9152 23.1085 11.84 23.5043 10.7264 23.5043C9.9328 23.5043 9.2288 23.2873 8.5888 22.8532C7.9488 22.4191 7.488 21.8446 7.168 21.1041V29.3644H10.3808V29.9772ZM7.168 11.3755V18.0527C7.168 18.972 7.296 19.7891 7.5648 20.504C7.8336 21.2062 8.1792 21.7424 8.6144 22.1254C9.0496 22.5085 9.4976 22.7 9.9712 22.7C10.7776 22.7 11.3664 22.317 11.7504 21.5637C12.1344 20.8104 12.3776 19.8912 12.48 18.806C12.5696 17.708 12.608 16.3419 12.608 14.7077C12.608 13.0863 12.5568 11.733 12.4672 10.635C12.3776 9.53705 12.1344 8.61782 11.7504 7.86456C11.3664 7.1113 10.7776 6.72828 9.9712 6.72828C9.2288 6.72828 8.576 7.1496 8.0128 8.005C7.4624 8.87316 7.168 9.99667 7.168 11.3755Z" fill="#FF0000"/>
<path d="M29.1456 22.8276H18.8032V22.2148H21.6704V7.2262H18.8032V6.61338H25.9712V8.65612C26.2656 7.89009 26.7648 7.23897 27.4304 6.71551C28.1088 6.19206 28.9664 5.92395 30.0288 5.92395C31.0912 5.92395 31.9232 6.21759 32.5376 6.80488C33.152 7.39217 33.4592 8.1965 33.4592 9.2051C33.4592 9.99667 33.216 10.6223 32.7424 11.0819C32.2688 11.5415 31.6928 11.7841 31.04 11.7841C30.336 11.7841 29.7344 11.5798 29.2224 11.1712C28.7104 10.7627 28.4544 10.2009 28.4544 9.51152C28.4544 8.69442 28.736 8.09436 29.2864 7.73688C29.6064 7.55814 29.7728 7.35387 29.7728 7.09853C29.7728 6.81765 29.5424 6.67721 29.0944 6.67721C28.6592 6.67721 28.1856 6.85595 27.6992 7.21343C27.2128 7.57091 26.8032 8.1582 26.4704 8.98806C26.1376 9.80516 25.9712 10.8393 25.9712 12.0649V22.2148H29.12L29.1456 22.8276Z" fill="#FF0000"/>
<path d="M42.8673 5.92395C44.5185 5.92395 45.9905 6.35803 47.2705 7.2262C48.5505 8.09436 49.5361 9.21787 50.2145 10.584C50.8929 11.95 51.2385 13.3289 51.2385 14.7077C51.2385 16.0994 50.8929 17.4782 50.2017 18.8443C49.5105 20.2104 48.5249 21.3339 47.2577 22.2021C45.9905 23.0702 44.5185 23.5043 42.8673 23.5043C41.2289 23.5043 39.7697 23.0702 38.5025 22.2021C37.2225 21.3339 36.2369 20.2104 35.5329 18.8315C34.8417 17.4654 34.4961 16.0866 34.4961 14.7077C34.4961 13.3289 34.8417 11.9628 35.5329 10.584C36.2369 9.21787 37.2225 8.10713 38.4897 7.2262C39.7569 6.35803 41.2161 5.92395 42.8673 5.92395ZM42.8673 22.8915C43.9169 22.8915 44.6977 22.4702 45.2353 21.6275C45.7601 20.7849 46.0929 19.7891 46.2337 18.6528C46.3745 17.5165 46.4385 16.2015 46.4385 14.7077C46.4385 13.2268 46.3745 11.9245 46.2337 10.7755C46.0929 9.62642 45.7601 8.63058 45.2353 7.80072C44.7105 6.95809 43.9169 6.54954 42.8673 6.54954C41.8177 6.54954 41.0369 6.97086 40.4993 7.80072C39.9745 8.63058 39.6289 9.62642 39.4881 10.7755C39.3473 11.9245 39.2705 13.2395 39.2705 14.7205C39.2705 16.2015 39.3473 17.5293 39.4881 18.6656C39.6289 19.8146 39.9745 20.8104 40.4993 21.6403C41.0369 22.4702 41.8305 22.8915 42.8673 22.8915Z" fill="#FF0000"/>
<path d="M63.8977 11.0691H63.2833C63.0529 9.7924 62.4769 8.71996 61.5425 7.85179C60.6209 6.98363 59.5969 6.54955 58.4961 6.54955C57.7793 6.54955 57.1649 6.74105 56.6273 7.13683C56.0897 7.53262 55.8209 8.10714 55.8209 8.8604C55.8209 10.1371 56.4609 11.018 57.7409 11.516C58.0225 11.6309 58.7265 11.8351 59.8657 12.1288C61.0049 12.4224 61.9393 12.7544 62.6561 13.0991C63.3729 13.4438 63.9873 13.98 64.4865 14.7077C64.9857 15.4227 65.2417 16.393 65.2417 17.6059C65.2417 18.8443 64.9857 19.9167 64.4737 20.8104C63.9617 21.7041 63.2833 22.3808 62.4513 22.8276C61.6193 23.2873 60.7233 23.5043 59.7889 23.5043C59.0465 23.5043 58.1889 23.3128 57.2161 22.917C57.0113 22.8276 56.7937 22.7383 56.5633 22.6361C56.3201 22.5468 56.1025 22.4702 55.8849 22.4063C55.6801 22.3553 55.4497 22.317 55.1681 22.317C54.3361 22.317 53.9137 22.751 53.9137 23.6192H53.2737V16.6611H53.8881C54.0161 17.7974 54.3873 18.8315 55.0017 19.7891C55.6033 20.7466 56.3457 21.4999 57.2161 22.0489C58.0865 22.5978 58.9569 22.8787 59.8145 22.8787C60.7489 22.8787 61.4657 22.5978 61.9777 22.0361C62.4897 21.4743 62.7457 20.8104 62.7457 20.0444C62.7457 19.0103 62.3617 18.2825 61.5937 17.8485C60.8385 17.4144 59.8401 17.0441 58.6113 16.7377C57.1265 16.3419 55.8593 15.7547 54.8225 15.0014C53.7857 14.2481 53.2737 12.9714 53.2737 11.184C53.2737 9.89454 53.5553 8.8604 54.1185 8.06884C54.6817 7.27727 55.3601 6.71552 56.1537 6.39634C56.9473 6.07716 57.7025 5.91119 58.4449 5.91119C59.1617 5.91119 59.9169 6.07716 60.7361 6.42187C61.6321 6.75382 62.1569 6.91979 62.2977 6.91979C62.5921 6.91979 62.8353 6.81766 63.0017 6.60061C63.1681 6.38357 63.2577 6.11546 63.2577 5.77075H63.8721V11.0691H63.8977Z" fill="#FEFEFE"/>
<path d="M76.3264 29.9772H65.9456V29.3644H68.8128V7.2262H65.9456V6.61338H73.1136V8.29864C73.4208 7.58368 73.8944 6.99639 74.5344 6.56231C75.1744 6.12823 75.8784 5.91119 76.672 5.91119C77.7856 5.91119 78.8608 6.30697 79.8976 7.1113C80.9344 7.91563 81.7792 8.98807 82.4064 10.3414C83.0464 11.6947 83.3536 13.1502 83.3536 14.695C83.3536 16.2526 83.0336 17.7208 82.4064 19.0741C81.7664 20.4274 80.9344 21.4999 79.8976 22.3042C78.8608 23.1085 77.7856 23.5043 76.672 23.5043C75.8784 23.5043 75.1744 23.2873 74.5344 22.8532C73.8944 22.4191 73.4336 21.8446 73.1136 21.1041V29.3644H76.3264V29.9772ZM73.1264 11.3755V18.0527C73.1264 18.972 73.2544 19.7891 73.5232 20.504C73.792 21.2062 74.1376 21.7424 74.5728 22.1255C75.0079 22.5085 75.456 22.7 75.9296 22.7C76.736 22.7 77.3247 22.317 77.7087 21.5637C78.0927 20.8104 78.336 19.8912 78.4384 18.806C78.528 17.708 78.5664 16.3419 78.5664 14.7077C78.5664 13.0863 78.5152 11.733 78.4256 10.635C78.336 9.53705 78.0927 8.61782 77.7087 7.86456C77.3247 7.1113 76.736 6.72828 75.9296 6.72828C75.1872 6.72828 74.5472 7.1496 73.9712 8.005C73.408 8.87316 73.1264 9.99667 73.1264 11.3755Z" fill="#FEFEFE"/>
<path d="M99.7762 18.0527H100.455C100.186 19.6103 99.469 20.8998 98.2914 21.9467C97.1138 22.9936 95.6162 23.5043 93.7858 23.5043C92.5698 23.5043 91.4562 23.2617 90.4194 22.7893C89.3954 22.317 88.5121 21.6531 87.7569 20.8104C87.0145 19.9806 86.4386 19.0358 86.0162 17.9761C85.6194 16.9165 85.4146 15.8313 85.4146 14.695C85.4146 13.3034 85.7602 11.9245 86.4514 10.5584C87.1426 9.20511 88.1154 8.0816 89.3826 7.21343C90.6498 6.34527 92.1218 5.91119 93.7858 5.91119C95.309 5.91119 96.6018 6.2942 97.6514 7.073C98.7138 7.87733 99.4945 8.92423 100.007 10.2392C100.519 11.5543 100.787 12.9842 100.787 14.5673H90.2018C90.2018 17.2356 90.509 19.2784 91.1234 20.6955C91.7378 22.1127 92.9026 22.8149 94.6178 22.8149C95.3986 22.8149 96.1665 22.6106 96.9089 22.1893C97.6641 21.768 98.2914 21.2062 98.8034 20.4785C99.3154 19.7635 99.6354 18.9464 99.7762 18.0527ZM90.2274 13.9545H96.0769C96.0769 11.7713 95.885 9.9839 95.5138 8.60505C95.1426 7.2262 94.3746 6.53678 93.2098 6.53678C92.4802 6.53678 91.789 6.99639 91.1618 7.91563C90.5346 8.83486 90.2146 10.5712 90.2146 13.1119V13.9545H90.2274Z" fill="#FEFEFE"/>
<path d="M116.518 18.0527H117.197C117.005 19.4444 116.429 20.6955 115.456 21.819C114.483 22.9425 113.062 23.5043 111.206 23.5043C109.99 23.5043 108.877 23.2617 107.84 22.7893C106.816 22.317 105.933 21.6531 105.178 20.8104C104.435 19.9806 103.859 19.0358 103.437 17.9761C103.04 16.9165 102.835 15.8313 102.835 14.695C102.835 13.3034 103.181 11.9245 103.872 10.5584C104.563 9.20511 105.536 8.0816 106.803 7.21343C108.07 6.34527 109.542 5.91119 111.206 5.91119C112.269 5.91119 113.216 6.08993 114.074 6.46017C114.944 6.84319 115.622 7.36664 116.109 8.0433C116.595 8.71996 116.838 9.48599 116.838 10.3286C116.838 11.0563 116.621 11.6819 116.186 12.1799C115.75 12.6778 115.149 12.9331 114.394 12.9331C113.613 12.9331 112.973 12.7033 112.474 12.2437C111.962 11.7841 111.718 11.2095 111.718 10.5074C111.718 9.44768 112.179 8.71996 113.101 8.32418C113.357 8.22204 113.549 8.13267 113.664 8.0433C113.792 7.95393 113.843 7.80072 113.843 7.58368C113.843 7.31557 113.664 7.073 113.306 6.85595C112.947 6.63891 112.435 6.53678 111.795 6.53678C110.886 6.53678 110.144 6.75382 109.581 7.17513C109.018 7.59645 108.595 8.18374 108.314 8.92423C108.032 9.66473 107.853 10.5201 107.763 11.4649C107.674 12.4224 107.635 13.5332 107.635 14.7971C107.635 16.1887 107.725 17.4654 107.917 18.6273C108.109 19.7635 108.531 20.7594 109.171 21.5765C109.824 22.4063 110.784 22.8149 112.051 22.8149C112.845 22.8149 113.562 22.5851 114.214 22.1127C114.867 21.6403 115.392 21.0275 115.802 20.287C116.198 19.5337 116.442 18.7932 116.518 18.0527Z" fill="#FEFEFE"/>
<path d="M120.627 7.2262H117.542V6.61338H120.627V2.65557C121.434 2.65557 122.227 2.47683 122.995 2.11935C123.763 1.7491 124.198 1.04691 124.314 0.0127678H124.928V6.61338H128V7.2262H124.928V20.6189C124.928 21.768 125.286 22.3553 126.016 22.3553C126.438 22.3553 126.771 22.1893 127.014 21.8573C127.258 21.5254 127.386 21.1169 127.386 20.6317H128C127.974 21.4105 127.706 22.0872 127.181 22.6617C126.656 23.2362 125.862 23.5298 124.813 23.5298C122.022 23.5298 120.627 21.7935 120.627 18.3081V7.2262Z" fill="#FEFEFE"/>
</svg>
