<svg width="221" height="64" viewBox="0 0 221 64" fill="none" xmlns="http://www.w3.org/2000/svg">
<rect opacity="0.3" x="0.5" y="0.5" width="220" height="63" rx="1.5" stroke="#A1A3B3"/>
<path d="M45.568 37.16C44.096 37.16 42.9547 36.7867 42.144 36.04C41.344 35.2827 40.9173 34.2107 40.864 32.824C40.8533 32.536 40.848 32.0667 40.848 31.416C40.848 30.7547 40.8533 30.2747 40.864 29.976C40.9173 28.6107 41.3493 27.5493 42.16 26.792C42.9707 26.024 44.1067 25.64 45.568 25.64C46.5173 25.64 47.344 25.8053 48.048 26.136C48.752 26.456 49.296 26.8987 49.68 27.464C50.0747 28.0293 50.2827 28.664 50.304 29.368V29.4C50.304 29.4853 50.2667 29.56 50.192 29.624C50.128 29.6773 50.0533 29.704 49.968 29.704H48.416C48.288 29.704 48.192 29.6773 48.128 29.624C48.064 29.56 48.0107 29.4533 47.968 29.304C47.808 28.6427 47.5307 28.1787 47.136 27.912C46.7413 27.6347 46.2187 27.496 45.568 27.496C44.0427 27.496 43.248 28.3493 43.184 30.056C43.1733 30.344 43.168 30.7867 43.168 31.384C43.168 31.9813 43.1733 32.4347 43.184 32.744C43.248 34.4507 44.0427 35.304 45.568 35.304C46.208 35.304 46.7253 35.1707 47.12 34.904C47.5253 34.6267 47.808 34.1573 47.968 33.496C48.0107 33.3467 48.064 33.2453 48.128 33.192C48.192 33.128 48.288 33.096 48.416 33.096H49.968C50.064 33.096 50.144 33.128 50.208 33.192C50.2827 33.256 50.3147 33.336 50.304 33.432C50.2827 34.136 50.0747 34.7707 49.68 35.336C49.296 35.9013 48.752 36.3493 48.048 36.68C47.344 37 46.5173 37.16 45.568 37.16ZM59.6091 37C59.5025 37 59.4118 36.9627 59.3371 36.888C59.2625 36.8133 59.2251 36.7227 59.2251 36.616V27.832H55.7691V29.816C55.7691 31.576 55.6465 32.968 55.4011 33.992C55.1665 35.0053 54.7611 35.752 54.1851 36.232C53.6091 36.7013 52.8038 36.952 51.7691 36.984C51.6625 36.9947 51.5665 36.9627 51.4811 36.888C51.4065 36.8027 51.3691 36.7067 51.3691 36.6V35.368C51.3691 35.2613 51.4011 35.176 51.4651 35.112C51.5398 35.048 51.6305 35.0053 51.7371 34.984C52.3665 34.888 52.8305 34.3973 53.1291 33.512C53.4385 32.616 53.5931 31.288 53.5931 29.528V26.184C53.5931 26.0667 53.6305 25.976 53.7051 25.912C53.7798 25.8373 53.8705 25.8 53.9771 25.8H61.0811C61.1985 25.8 61.2945 25.8373 61.3691 25.912C61.4438 25.9867 61.4811 26.0827 61.4811 26.2V36.616C61.4811 36.7227 61.4438 36.8133 61.3691 36.888C61.2945 36.9627 61.1985 37 61.0811 37H59.6091ZM64.3508 37C64.2441 37 64.1534 36.9627 64.0788 36.888C64.0041 36.8133 63.9668 36.7227 63.9668 36.616V26.2C63.9668 26.0827 63.9988 25.9867 64.0628 25.912C64.1374 25.8373 64.2334 25.8 64.3508 25.8H71.4068C71.5241 25.8 71.6201 25.8373 71.6948 25.912C71.7694 25.9867 71.8068 26.0827 71.8068 26.2V27.272C71.8068 27.3893 71.7694 27.4853 71.6948 27.56C71.6201 27.624 71.5241 27.656 71.4068 27.656H66.1588V30.456H71.0548C71.1721 30.456 71.2681 30.4933 71.3428 30.568C71.4174 30.6427 71.4548 30.7387 71.4548 30.856V31.864C71.4548 31.9813 71.4174 32.0773 71.3428 32.152C71.2681 32.216 71.1721 32.248 71.0548 32.248H66.1588V35.144H71.5347C71.6521 35.144 71.7481 35.1813 71.8228 35.256C71.8974 35.32 71.9348 35.4107 71.9348 35.528V36.616C71.9348 36.7333 71.8974 36.8293 71.8228 36.904C71.7481 36.968 71.6521 37 71.5347 37H64.3508ZM73.4875 39.224C73.3808 39.224 73.2902 39.1867 73.2155 39.112C73.1408 39.048 73.1035 38.9573 73.1035 38.84V35.352C73.1035 35.2453 73.1408 35.1547 73.2155 35.08C73.2902 35.0053 73.3808 34.968 73.4875 34.968H73.8075C74.3088 34.968 74.6715 34.5093 74.8955 33.592C75.1302 32.6747 75.2475 31.32 75.2475 29.528V26.184C75.2475 26.0773 75.2848 25.9867 75.3595 25.912C75.4342 25.8373 75.5248 25.8 75.6315 25.8H82.5435C82.6608 25.8 82.7568 25.8373 82.8315 25.912C82.9062 25.9867 82.9435 26.0827 82.9435 26.2V34.968H83.7115C83.8182 34.968 83.9088 35.0053 83.9835 35.08C84.0688 35.1547 84.1115 35.2453 84.1115 35.352V38.84C84.1115 38.9467 84.0742 39.0373 83.9995 39.112C83.9248 39.1867 83.8288 39.224 83.7115 39.224H82.2395C82.1328 39.224 82.0422 39.1867 81.9675 39.112C81.8928 39.048 81.8555 38.9573 81.8555 38.84V37H75.3595V38.84C75.3595 38.9573 75.3222 39.048 75.2475 39.112C75.1835 39.1867 75.0928 39.224 74.9755 39.224H73.4875ZM80.6875 34.968V27.832H77.4395V29.816C77.4395 32.3227 77.1462 34.04 76.5595 34.968H80.6875ZM94.225 25.8C94.321 25.8 94.401 25.832 94.465 25.896C94.529 25.96 94.561 26.0347 94.561 26.12C94.561 26.2267 94.5397 26.3173 94.497 26.392L91.281 33.736C90.9077 34.5893 90.5663 35.24 90.257 35.688C89.9477 36.136 89.569 36.4667 89.121 36.68C88.6837 36.8933 88.1077 37 87.393 37H86.641C86.5343 37 86.4437 36.9627 86.369 36.888C86.2943 36.8133 86.257 36.7227 86.257 36.616V35.4C86.257 35.2933 86.2943 35.2027 86.369 35.128C86.4437 35.0533 86.5343 35.016 86.641 35.016H87.233C87.5957 35.016 87.8997 34.92 88.145 34.728C88.401 34.536 88.6463 34.216 88.881 33.768L84.833 26.312C84.8117 26.2267 84.801 26.1733 84.801 26.152C84.801 26.056 84.833 25.976 84.897 25.912C84.9717 25.8373 85.057 25.8 85.153 25.8H86.753C86.9343 25.8 87.073 25.9013 87.169 26.104L89.985 31.352L92.273 26.104C92.3477 25.9013 92.497 25.8 92.721 25.8H94.225ZM104.931 37.16C103.448 37.16 102.317 36.7813 101.539 36.024C100.771 35.2667 100.344 34.2373 100.259 32.936C100.237 32.6587 100.227 32.4613 100.227 32.344H98.0665V36.616C98.0665 36.7227 98.0292 36.8133 97.9545 36.888C97.8798 36.9627 97.7838 37 97.6665 37H96.1945C96.0878 37 95.9972 36.9627 95.9225 36.888C95.8478 36.8133 95.8105 36.7227 95.8105 36.616V26.184C95.8105 26.0667 95.8478 25.976 95.9225 25.912C95.9972 25.8373 96.0878 25.8 96.1945 25.8H97.6665C97.7838 25.8 97.8798 25.8373 97.9545 25.912C98.0292 25.9867 98.0665 26.0773 98.0665 26.184V30.312H100.243L100.259 29.816C100.365 28.5573 100.803 27.5493 101.571 26.792C102.349 26.024 103.469 25.64 104.931 25.64C106.435 25.64 107.576 26.0453 108.355 26.856C109.144 27.656 109.565 28.7173 109.619 30.04C109.64 30.6587 109.651 31.1173 109.651 31.416C109.651 31.704 109.64 32.1573 109.619 32.776C109.565 34.1307 109.149 35.2027 108.371 35.992C107.592 36.7707 106.445 37.16 104.931 37.16ZM104.931 35.304C105.645 35.304 106.211 35.096 106.627 34.68C107.043 34.264 107.267 33.6187 107.299 32.744C107.32 32.104 107.331 31.656 107.331 31.4C107.331 31.1227 107.32 30.6747 107.299 30.056C107.267 29.1813 107.037 28.536 106.611 28.12C106.195 27.704 105.635 27.496 104.931 27.496C104.227 27.496 103.661 27.704 103.235 28.12C102.819 28.536 102.595 29.1813 102.562 30.056C102.552 30.3653 102.547 30.8133 102.547 31.4C102.547 31.976 102.552 32.424 102.562 32.744C102.595 33.6187 102.819 34.264 103.235 34.68C103.651 35.096 104.216 35.304 104.931 35.304ZM124.116 39.24C124.009 39.24 123.919 39.2027 123.844 39.128C123.769 39.0533 123.732 38.9627 123.732 38.856V37H112.132C112.025 37 111.935 36.9627 111.86 36.888C111.785 36.8133 111.748 36.7227 111.748 36.616V26.184C111.748 26.0667 111.785 25.976 111.86 25.912C111.935 25.8373 112.025 25.8 112.132 25.8H113.604C113.721 25.8 113.817 25.8373 113.892 25.912C113.967 25.9867 114.004 26.0773 114.004 26.184V34.968H117.156V26.184C117.156 26.0773 117.193 25.9867 117.268 25.912C117.343 25.8373 117.439 25.8 117.556 25.8H119.028C119.145 25.8 119.236 25.8373 119.3 25.912C119.375 25.976 119.412 26.0667 119.412 26.184V34.968H122.58V26.184C122.58 26.0667 122.617 25.976 122.692 25.912C122.767 25.8373 122.857 25.8 122.964 25.8H124.436C124.553 25.8 124.649 25.8373 124.724 25.912C124.799 25.9867 124.836 26.0773 124.836 26.184V34.968H125.604C125.711 34.968 125.801 35.0053 125.876 35.08C125.951 35.1547 125.988 35.2453 125.988 35.352V38.856C125.988 38.9733 125.951 39.064 125.876 39.128C125.812 39.2027 125.721 39.24 125.604 39.24H124.116ZM127.076 37C126.98 37 126.9 36.968 126.836 36.904C126.772 36.84 126.74 36.76 126.74 36.664L126.772 36.52L130.612 26.2C130.718 25.9333 130.91 25.8 131.188 25.8H132.948C133.225 25.8 133.417 25.9333 133.524 26.2L137.364 36.52L137.396 36.664C137.396 36.76 137.358 36.84 137.284 36.904C137.22 36.968 137.145 37 137.06 37H135.636C135.412 37 135.257 36.8987 135.172 36.696L134.436 34.76H129.7L128.964 36.696C128.878 36.8987 128.724 37 128.5 37H127.076ZM130.26 32.904H133.876L132.068 27.976L130.26 32.904ZM146.905 25.8C147.022 25.8 147.113 25.8373 147.177 25.912C147.252 25.976 147.289 26.0667 147.289 26.184V36.616C147.289 36.7227 147.252 36.8133 147.177 36.888C147.113 36.9627 147.022 37 146.905 37H145.433C145.316 37 145.22 36.968 145.145 36.904C145.07 36.8293 145.033 36.7333 145.033 36.616V32.968H143.273L141.145 36.568C141.081 36.7067 141.001 36.8133 140.905 36.888C140.809 36.9627 140.676 37 140.505 37H139.033C138.948 37 138.868 36.968 138.793 36.904C138.729 36.84 138.697 36.76 138.697 36.664C138.697 36.6107 138.713 36.552 138.745 36.488L141.065 32.696C140.393 32.44 139.87 32.0347 139.497 31.48C139.124 30.9147 138.937 30.2267 138.937 29.416C138.937 28.744 139.086 28.136 139.385 27.592C139.694 27.0373 140.148 26.6 140.745 26.28C141.353 25.96 142.084 25.8 142.937 25.8H146.905ZM145.033 27.592H143.017C142.462 27.592 142.03 27.7627 141.721 28.104C141.412 28.4347 141.257 28.8773 141.257 29.432C141.257 30.5627 141.844 31.128 143.017 31.128H145.033V27.592Z" fill="#181920"/>
<path d="M172.5 32.8L166.8 38.4C166.4 38.8 165.8 38.8 165.4 38.4C165 38 165 37.4 165.4 37L170.3 32L165.4 27C165 26.6 165 26 165.4 25.6C165.6 25.4 165.8 25.3 166.1 25.3C166.4 25.3 166.6 25.4 166.8 25.6L172.5 31.2C172.9 31.7 172.9 32.3 172.5 32.8C172.5 32.7 172.5 32.7 172.5 32.8Z" fill="#575966"/>
</svg>
