<svg width="138" height="34" viewBox="0 0 138 34" fill="none" xmlns="http://www.w3.org/2000/svg">
<path d="M1.54 22C1.44667 22 1.372 21.972 1.316 21.916C1.26 21.8507 1.232 21.7713 1.232 21.678V12.536C1.232 12.4333 1.26 12.354 1.316 12.298C1.372 12.2327 1.44667 12.2 1.54 12.2H4.704C6.11333 12.2 7.13067 12.5173 7.756 13.152C8.38133 13.7773 8.70333 14.7247 8.722 15.994C8.73133 16.2647 8.736 16.6287 8.736 17.086C8.736 17.5433 8.73133 17.912 8.722 18.192C8.70333 19.0787 8.55867 19.802 8.288 20.362C8.02667 20.9127 7.61133 21.3233 7.042 21.594C6.47267 21.8647 5.71667 22 4.774 22H1.54ZM4.704 20.838C5.35733 20.838 5.87533 20.7493 6.258 20.572C6.65 20.3853 6.93 20.1007 7.098 19.718C7.27533 19.326 7.37333 18.7987 7.392 18.136C7.41067 17.576 7.42 17.226 7.42 17.086C7.42 16.9367 7.41067 16.5913 7.392 16.05C7.37333 15.1167 7.14933 14.4353 6.72 14.006C6.3 13.5673 5.60467 13.348 4.634 13.348H2.548V20.838H4.704ZM13.5727 22.14C12.6207 22.14 11.86 21.846 11.2907 21.258C10.7213 20.6607 10.4087 19.8487 10.3527 18.822L10.3387 18.346L10.3527 17.884C10.4087 16.876 10.7213 16.0733 11.2907 15.476C11.86 14.8787 12.6207 14.58 13.5727 14.58C14.5993 14.58 15.3927 14.9067 15.9527 15.56C16.522 16.2133 16.8067 17.1 16.8067 18.22V18.472C16.8067 18.5653 16.774 18.6447 16.7087 18.71C16.6527 18.766 16.578 18.794 16.4847 18.794H11.6267V18.92C11.6547 19.5267 11.8413 20.0447 12.1867 20.474C12.532 20.9033 12.9893 21.118 13.5587 21.118C13.9973 21.118 14.352 21.034 14.6227 20.866C14.9027 20.6887 15.1127 20.5067 15.2527 20.32C15.3367 20.208 15.402 20.1427 15.4487 20.124C15.4953 20.096 15.5747 20.082 15.6867 20.082H16.3027C16.3867 20.082 16.4567 20.1053 16.5127 20.152C16.578 20.1987 16.6107 20.2593 16.6107 20.334C16.6107 20.5393 16.4847 20.7867 16.2327 21.076C15.9807 21.3653 15.6213 21.6173 15.1547 21.832C14.6973 22.0373 14.17 22.14 13.5727 22.14ZM15.5327 17.842V17.8C15.5327 17.1467 15.3553 16.6147 15.0007 16.204C14.646 15.7933 14.17 15.588 13.5727 15.588C12.966 15.588 12.49 15.7933 12.1447 16.204C11.7993 16.6147 11.6267 17.1467 11.6267 17.8V17.842H15.5327ZM20.7969 22C20.5542 22 20.3816 21.8833 20.2789 21.65L17.6749 15.154C17.6656 15.126 17.6609 15.0793 17.6609 15.014C17.6609 14.93 17.6889 14.86 17.7449 14.804C17.8009 14.748 17.8662 14.72 17.9409 14.72H18.5849C18.7342 14.72 18.8462 14.7947 18.9209 14.944L21.0769 20.53L23.2329 14.944C23.2516 14.888 23.2889 14.8367 23.3449 14.79C23.4102 14.7433 23.4849 14.72 23.5689 14.72H24.2129C24.2876 14.72 24.3529 14.748 24.4089 14.804C24.4649 14.86 24.4929 14.93 24.4929 15.014L24.4649 15.154L21.8749 21.65C21.7722 21.8833 21.5996 22 21.3569 22H20.7969ZM28.6117 22.14C27.6597 22.14 26.8991 21.846 26.3297 21.258C25.7604 20.6607 25.4477 19.8487 25.3917 18.822L25.3777 18.346L25.3917 17.884C25.4477 16.876 25.7604 16.0733 26.3297 15.476C26.8991 14.8787 27.6597 14.58 28.6117 14.58C29.6384 14.58 30.4317 14.9067 30.9917 15.56C31.5611 16.2133 31.8457 17.1 31.8457 18.22V18.472C31.8457 18.5653 31.8131 18.6447 31.7477 18.71C31.6917 18.766 31.6171 18.794 31.5237 18.794H26.6657V18.92C26.6937 19.5267 26.8804 20.0447 27.2257 20.474C27.5711 20.9033 28.0284 21.118 28.5977 21.118C29.0364 21.118 29.3911 21.034 29.6617 20.866C29.9417 20.6887 30.1517 20.5067 30.2917 20.32C30.3757 20.208 30.4411 20.1427 30.4877 20.124C30.5344 20.096 30.6137 20.082 30.7257 20.082H31.3417C31.4257 20.082 31.4957 20.1053 31.5517 20.152C31.6171 20.1987 31.6497 20.2593 31.6497 20.334C31.6497 20.5393 31.5237 20.7867 31.2717 21.076C31.0197 21.3653 30.6604 21.6173 30.1937 21.832C29.7364 22.0373 29.2091 22.14 28.6117 22.14ZM30.5717 17.842V17.8C30.5717 17.1467 30.3944 16.6147 30.0397 16.204C29.6851 15.7933 29.2091 15.588 28.6117 15.588C28.0051 15.588 27.5291 15.7933 27.1837 16.204C26.8384 16.6147 26.6657 17.1467 26.6657 17.8V17.842H30.5717ZM33.884 22C33.7907 22 33.7114 21.972 33.646 21.916C33.59 21.8507 33.562 21.7713 33.562 21.678V12.382C33.562 12.2793 33.59 12.2 33.646 12.144C33.7114 12.088 33.7907 12.06 33.884 12.06H34.5C34.5934 12.06 34.668 12.0927 34.724 12.158C34.7894 12.214 34.822 12.2887 34.822 12.382V21.678C34.822 21.7713 34.7894 21.8507 34.724 21.916C34.668 21.972 34.5934 22 34.5 22H33.884ZM39.879 22.14C38.8523 22.14 38.059 21.8507 37.499 21.272C36.9483 20.6933 36.6543 19.9233 36.617 18.962L36.603 18.36L36.617 17.758C36.6543 16.7967 36.953 16.0267 37.513 15.448C38.0823 14.8693 38.871 14.58 39.879 14.58C40.887 14.58 41.671 14.8693 42.231 15.448C42.8003 16.0267 43.1037 16.7967 43.141 17.758C43.1597 17.9633 43.169 18.164 43.169 18.36C43.169 18.556 43.1597 18.7567 43.141 18.962C43.1037 19.9233 42.805 20.6933 42.245 21.272C41.6943 21.8507 40.9057 22.14 39.879 22.14ZM39.879 21.09C40.4763 21.09 40.9477 20.9033 41.293 20.53C41.6477 20.1473 41.839 19.6013 41.867 18.892C41.8763 18.7987 41.881 18.6213 41.881 18.36C41.881 18.0987 41.8763 17.9213 41.867 17.828C41.839 17.1187 41.6477 16.5773 41.293 16.204C40.9477 15.8213 40.4763 15.63 39.879 15.63C39.2817 15.63 38.8057 15.8213 38.451 16.204C38.1057 16.5773 37.919 17.1187 37.891 17.828L37.877 18.36L37.891 18.892C37.919 19.6013 38.1057 20.1473 38.451 20.53C38.8057 20.9033 39.2817 21.09 39.879 21.09ZM45.2727 24.66C45.1794 24.66 45.1001 24.632 45.0347 24.576C44.9787 24.52 44.9507 24.4407 44.9507 24.338V15.042C44.9507 14.9393 44.9787 14.86 45.0347 14.804C45.1001 14.748 45.1794 14.72 45.2727 14.72H45.8607C45.9634 14.72 46.0427 14.748 46.0987 14.804C46.1547 14.86 46.1827 14.9393 46.1827 15.042V15.658C46.7241 14.9393 47.4941 14.58 48.4927 14.58C49.4727 14.58 50.2054 14.8927 50.6907 15.518C51.1854 16.134 51.4467 16.9227 51.4747 17.884C51.4841 17.9867 51.4887 18.1453 51.4887 18.36C51.4887 18.5747 51.4841 18.7333 51.4747 18.836C51.4467 19.788 51.1854 20.5767 50.6907 21.202C50.2054 21.8273 49.4727 22.14 48.4927 22.14C47.4941 22.14 46.7381 21.7853 46.2247 21.076V24.338C46.2247 24.4313 46.1921 24.506 46.1267 24.562C46.0707 24.6273 45.9961 24.66 45.9027 24.66H45.2727ZM48.2267 21.048C48.8987 21.048 49.3887 20.838 49.6967 20.418C50.0047 19.998 50.1727 19.4473 50.2007 18.766C50.2101 18.6727 50.2147 18.5373 50.2147 18.36C50.2147 16.568 49.5521 15.672 48.2267 15.672C47.5734 15.672 47.0787 15.8913 46.7427 16.33C46.4161 16.7593 46.2434 17.268 46.2247 17.856C46.2154 17.9587 46.2107 18.1407 46.2107 18.402C46.2107 18.6633 46.2154 18.8453 46.2247 18.948C46.2434 19.5173 46.4207 20.012 46.7567 20.432C47.1021 20.8427 47.5921 21.048 48.2267 21.048ZM56.1332 22.14C55.1812 22.14 54.4206 21.846 53.8512 21.258C53.2819 20.6607 52.9692 19.8487 52.9132 18.822L52.8992 18.346L52.9132 17.884C52.9692 16.876 53.2819 16.0733 53.8512 15.476C54.4206 14.8787 55.1812 14.58 56.1332 14.58C57.1599 14.58 57.9532 14.9067 58.5132 15.56C59.0826 16.2133 59.3672 17.1 59.3672 18.22V18.472C59.3672 18.5653 59.3346 18.6447 59.2692 18.71C59.2132 18.766 59.1386 18.794 59.0452 18.794H54.1872V18.92C54.2152 19.5267 54.4019 20.0447 54.7472 20.474C55.0926 20.9033 55.5499 21.118 56.1192 21.118C56.5579 21.118 56.9126 21.034 57.1832 20.866C57.4632 20.6887 57.6732 20.5067 57.8132 20.32C57.8972 20.208 57.9626 20.1427 58.0092 20.124C58.0559 20.096 58.1352 20.082 58.2472 20.082H58.8632C58.9472 20.082 59.0172 20.1053 59.0732 20.152C59.1386 20.1987 59.1712 20.2593 59.1712 20.334C59.1712 20.5393 59.0452 20.7867 58.7932 21.076C58.5412 21.3653 58.1819 21.6173 57.7152 21.832C57.2579 22.0373 56.7306 22.14 56.1332 22.14ZM58.0932 17.842V17.8C58.0932 17.1467 57.9159 16.6147 57.5612 16.204C57.2066 15.7933 56.7306 15.588 56.1332 15.588C55.5266 15.588 55.0506 15.7933 54.7052 16.204C54.3599 16.6147 54.1872 17.1467 54.1872 17.8V17.842H58.0932ZM63.7295 22.14C62.7495 22.14 62.0122 21.8227 61.5175 21.188C61.0322 20.5533 60.7709 19.7507 60.7335 18.78L60.7195 18.36L60.7335 17.94C60.7709 16.9787 61.0369 16.1807 61.5315 15.546C62.0262 14.902 62.7589 14.58 63.7295 14.58C64.7002 14.58 65.4562 14.9253 65.9975 15.616V12.382C65.9975 12.2887 66.0255 12.214 66.0815 12.158C66.1469 12.0927 66.2262 12.06 66.3195 12.06H66.9495C67.0429 12.06 67.1175 12.0927 67.1735 12.158C67.2389 12.214 67.2715 12.2887 67.2715 12.382V21.678C67.2715 21.7713 67.2389 21.8507 67.1735 21.916C67.1175 21.972 67.0429 22 66.9495 22H66.3475C66.2542 22 66.1795 21.972 66.1235 21.916C66.0675 21.8507 66.0395 21.7713 66.0395 21.678V21.076C65.5075 21.7853 64.7375 22.14 63.7295 22.14ZM63.9955 21.048C64.6489 21.048 65.1389 20.8333 65.4655 20.404C65.7922 19.9653 65.9695 19.4473 65.9975 18.85C66.0069 18.7473 66.0115 18.57 66.0115 18.318C66.0115 18.0567 66.0069 17.8747 65.9975 17.772C65.9789 17.2027 65.7969 16.7127 65.4515 16.302C65.1155 15.882 64.6302 15.672 63.9955 15.672C63.3235 15.672 62.8335 15.882 62.5255 16.302C62.2175 16.722 62.0495 17.2727 62.0215 17.954L62.0075 18.36C62.0075 20.152 62.6702 21.048 63.9955 21.048ZM76.3833 22.14C75.3753 22.14 74.6053 21.7853 74.0733 21.076V21.678C74.0733 21.7713 74.0407 21.8507 73.9753 21.916C73.9193 21.972 73.8447 22 73.7513 22H73.1633C73.07 22 72.9907 21.972 72.9253 21.916C72.8693 21.8507 72.8413 21.7713 72.8413 21.678V12.382C72.8413 12.2793 72.8693 12.2 72.9253 12.144C72.9907 12.088 73.07 12.06 73.1633 12.06H73.7933C73.8867 12.06 73.9613 12.0927 74.0173 12.158C74.0827 12.214 74.1153 12.2887 74.1153 12.382V15.616C74.638 14.9253 75.394 14.58 76.3833 14.58C77.3633 14.58 78.096 14.902 78.5813 15.546C79.076 16.1807 79.3373 16.9787 79.3653 17.94C79.3747 18.0427 79.3793 18.1827 79.3793 18.36C79.3793 18.5373 79.3747 18.6773 79.3653 18.78C79.3373 19.7413 79.076 20.544 78.5813 21.188C78.096 21.8227 77.3633 22.14 76.3833 22.14ZM76.1173 21.048C76.7893 21.048 77.2793 20.838 77.5873 20.418C77.8953 19.998 78.0633 19.4473 78.0913 18.766C78.1007 18.6727 78.1053 18.5373 78.1053 18.36C78.1053 16.568 77.4427 15.672 76.1173 15.672C75.4827 15.672 74.9927 15.882 74.6473 16.302C74.3113 16.7127 74.134 17.2027 74.1153 17.772C74.106 17.8747 74.1013 18.0567 74.1013 18.318C74.1013 18.57 74.106 18.7473 74.1153 18.85C74.134 19.4473 74.3067 19.9653 74.6333 20.404C74.9693 20.8333 75.464 21.048 76.1173 21.048ZM82.1404 24.66C82.0564 24.66 81.9864 24.632 81.9304 24.576C81.8744 24.52 81.8464 24.4547 81.8464 24.38C81.8464 24.352 81.8697 24.268 81.9164 24.128L83.0084 21.566L80.3344 15.252C80.2784 15.14 80.2504 15.0607 80.2504 15.014C80.2597 14.93 80.2924 14.86 80.3484 14.804C80.4044 14.748 80.4697 14.72 80.5444 14.72H81.1884C81.3377 14.72 81.4497 14.7947 81.5244 14.944L83.6804 20.096L85.8924 14.944C85.9671 14.7947 86.0791 14.72 86.2284 14.72H86.8584C86.9331 14.72 86.9984 14.748 87.0544 14.804C87.1104 14.86 87.1384 14.9253 87.1384 15C87.1384 15.0653 87.1151 15.1493 87.0684 15.252L83.1064 24.436C83.0597 24.5107 83.0084 24.5667 82.9524 24.604C82.9057 24.6413 82.8404 24.66 82.7564 24.66H82.1404Z" fill="#575966"/>
<circle cx="113" cy="17" r="15.5" stroke="#575966" stroke-width="3"/>
<rect x="132" y="26" width="2" height="8" fill="#575966"/>
<rect x="136" y="26" width="2" height="8" fill="#575966"/>
</svg>
